<?xml version="1.0" standalone="no"?>
<!DOCTYPE svg PUBLIC "-//W3C//DTD SVG 20010904//EN"
 "http://www.w3.org/TR/2001/REC-SVG-20010904/DTD/svg10.dtd">
<svg version="1.0" xmlns="http://www.w3.org/2000/svg"
 width="300.000000pt" height="300.000000pt" viewBox="0 0 300.000000 300.000000"
 preserveAspectRatio="xMidYMid meet">
<metadata>
Created by potrace 1.14, written by Peter Selinger 2001-2017
</metadata>
<g transform="translate(0.000000,300.000000) scale(0.100000,-0.100000)"
fill="#000000" stroke="none">
<path d="M1421 2914 c-36 -11 -47 -11 -53 -1 -6 9 -8 9 -8 0 0 -7 -11 -13 -24
-13 -31 0 -85 -23 -114 -48 -13 -12 -30 -18 -38 -15 -8 3 -22 -1 -31 -8 -12
-10 -15 -10 -9 -1 10 16 -4 15 -27 -2 -14 -11 -15 -15 -5 -19 7 -3 3 -6 -9 -6
-12 -1 -26 -7 -30 -15 -4 -7 -27 -23 -51 -35 -61 -31 -120 -87 -146 -140 -48
-96 -69 -410 -40 -608 6 -39 5 -43 -14 -43 -42 0 -54 -63 -25 -128 9 -20 20
-73 24 -117 11 -116 26 -176 48 -191 12 -9 25 -41 36 -86 10 -40 22 -81 27
-91 6 -12 5 -31 -3 -54 -6 -20 -14 -59 -18 -86 l-6 -50 -115 -59 c-102 -53
-175 -85 -510 -226 -72 -30 -100 -36 -183 -40 l-97 -4 0 -414 0 -414 629 0
c494 0 630 3 634 13 4 9 6 9 6 0 2 -25 31 -14 31 11 0 13 3 32 6 40 4 12 2 15
-9 11 -11 -5 -18 9 -30 55 -13 54 -13 62 0 76 14 13 13 17 -2 34 -16 17 -16
20 1 45 9 14 13 25 8 24 -33 -6 -36 1 -29 56 4 38 3 55 -5 55 -14 0 -9 92 5
103 6 4 4 11 -5 17 -11 7 -19 5 -27 -7 -7 -9 -13 -12 -13 -6 0 6 8 21 18 33
15 18 22 21 38 13 10 -6 24 -9 29 -7 6 3 11 -5 12 -16 2 -22 25 -50 42 -50 6
0 11 -17 11 -39 0 -30 4 -40 19 -44 22 -5 31 0 31 20 0 7 -8 13 -17 13 -9 0
-13 3 -10 7 4 3 2 12 -4 20 -9 10 -7 13 7 14 11 0 14 3 6 6 -6 2 -10 8 -7 12
2 4 0 21 -5 37 -8 28 -9 28 -15 7 -10 -31 -21 -29 -33 4 -7 22 -5 32 8 46 9 9
22 17 28 17 7 0 12 5 12 10 0 6 5 10 10 10 6 0 10 -9 10 -20 0 -11 7 -23 15
-26 8 -4 13 -9 10 -13 -12 -21 -13 -61 0 -61 7 0 16 -6 19 -12 3 -7 3 14 -1
47 -3 33 -11 63 -17 68 -8 5 -7 10 4 16 37 24 71 -51 62 -139 l-5 -53 -18 24
-19 24 0 -25 c0 -32 14 -55 29 -46 7 5 11 -3 11 -20 0 -22 2 -25 15 -14 8 7
15 20 15 30 0 25 11 31 27 15 12 -13 17 -13 38 1 14 9 22 20 19 25 -3 5 0 9 6
9 7 0 10 -6 7 -14 -3 -7 2 -24 11 -37 11 -16 12 -24 4 -27 -7 -2 -12 -10 -12
-17 0 -19 -40 -6 -41 14 0 12 -2 11 -8 -4 -10 -24 14 -60 40 -62 18 -2 39 39
48 92 2 18 31 -47 30 -69 -1 -17 -2 -17 -6 -3 -7 26 -23 10 -23 -24 0 -22 5
-29 19 -29 11 0 23 -5 27 -12 5 -7 2 -9 -9 -5 -11 4 -18 -1 -22 -14 -4 -10
-11 -17 -16 -14 -5 4 -9 0 -9 -7 0 -18 29 -57 30 -40 0 6 5 12 10 12 7 0 7 -6
0 -20 -6 -11 -17 -20 -25 -20 -8 0 -15 -7 -15 -15 0 -8 -7 -15 -15 -15 -23 0
-18 -27 6 -33 21 -6 22 -22 3 -89 -5 -17 32 -18 680 -18 l686 0 0 496 0 495
-102 -2 c-126 -2 -123 -2 -108 16 10 11 36 15 111 15 l99 0 0 26 0 25 -218 -7
c-163 -5 -224 -4 -241 5 -12 7 -48 19 -79 27 -31 8 -88 32 -127 53 -38 21 -81
42 -95 46 -14 4 -53 25 -86 46 l-61 40 9 47 c5 30 5 63 -2 92 -6 25 -9 96 -8
158 4 117 -5 149 -15 61 -4 -28 -10 -56 -15 -63 -15 -18 -26 -80 -13 -72 6 4
11 2 11 -4 0 -6 5 -8 12 -4 8 5 9 2 3 -12 -4 -10 -10 -34 -13 -51 -2 -18 -8
-30 -13 -27 -5 3 -6 -2 -3 -10 4 -11 -3 -19 -22 -27 -16 -6 -23 -13 -16 -16 6
-3 12 -12 12 -21 0 -12 -9 -17 -30 -17 -26 0 -28 2 -14 12 20 15 26 83 7 76
-7 -3 -13 -10 -13 -15 0 -6 -7 -8 -15 -5 -21 9 -29 -10 -9 -21 10 -6 14 -14 9
-22 -5 -9 -15 -4 -33 16 -14 16 -23 22 -20 14 4 -10 -3 -20 -19 -27 -23 -11
-26 -10 -36 17 -12 32 -27 40 -27 15 0 -18 -45 -11 -71 12 -9 7 -23 11 -31 8
-8 -3 -26 5 -40 17 -15 13 -38 32 -51 44 l-25 21 21 18 c31 27 3 33 -40 9 -24
-12 -36 -15 -41 -7 -4 6 -20 15 -36 19 -18 4 -36 20 -50 43 -23 39 -23 59 2
77 13 10 15 32 13 144 -1 93 2 136 10 147 11 12 6 20 -27 48 -21 19 -44 34
-51 35 -7 0 -42 16 -78 36 -45 25 -65 42 -65 55 0 11 -7 19 -16 19 -8 0 -13 3
-10 8 2 4 -4 25 -14 47 -21 44 -18 48 40 60 19 4 40 12 47 17 14 11 7 38 -16
56 -14 11 -14 14 -1 22 12 7 9 13 -12 30 -15 11 -32 37 -39 58 -6 20 -16 42
-20 48 -6 7 -4 15 3 22 15 11 87 36 138 47 19 4 41 12 49 19 17 13 168 10 206
-4 36 -14 71 -12 87 3 17 18 66 27 71 14 2 -6 24 -12 50 -13 50 -3 93 -21 118
-50 25 -28 69 -116 69 -137 0 -10 5 -27 11 -38 7 -15 7 -24 -2 -35 -8 -10 -8
-14 0 -14 6 0 11 -5 11 -12 0 -6 6 -19 14 -27 17 -19 37 -246 37 -418 0 -62 4
-115 9 -118 18 -11 32 65 21 109 -9 36 -7 59 14 142 21 88 23 116 20 254 -2
85 -4 182 -5 215 l0 59 -73 72 c-58 57 -77 83 -87 119 -8 28 -16 42 -20 34 -6
-8 -10 -6 -14 7 -11 33 -110 133 -144 145 -17 6 -30 15 -27 19 3 4 -30 17 -73
29 -91 24 -213 27 -281 5z m-116 -1035 c8 -13 6 -15 -23 -24 -22 -6 -23 -5
-13 14 13 23 26 27 36 10z m-44 -158 c19 -1 43 -7 53 -14 15 -11 16 -17 5 -42
-17 -39 -76 -106 -108 -124 -24 -13 -27 -12 -63 29 -22 24 -38 53 -38 67 0 13
-7 37 -15 52 -8 16 -11 31 -8 35 3 3 36 4 72 2 36 -2 82 -4 102 -5z m819 -192
c0 -11 -4 -17 -10 -14 -5 3 -10 13 -10 21 0 8 5 14 10 14 6 0 10 -9 10 -21z
m-230 -225 c0 -8 -5 -12 -10 -9 -6 4 -8 11 -5 16 9 14 15 11 15 -7z m-253 -19
c20 -9 43 -13 50 -11 28 11 11 -15 -25 -39 -35 -23 -41 -24 -97 -14 -52 9 -60
13 -61 33 -2 22 17 31 89 45 4 0 24 -6 44 -14z m107 -51 c9 -3 13 -10 10 -15
-3 -5 -1 -9 5 -9 16 0 34 -41 24 -51 -9 -9 -30 6 -32 24 -1 4 -4 7 -8 6 -5 -1
-7 -5 -5 -10 1 -5 -4 -9 -10 -9 -9 0 -8 -4 2 -10 8 -5 11 -10 5 -10 -5 0 -17
5 -25 10 -13 8 -13 10 0 10 11 0 11 3 2 12 -16 16 -15 45 1 51 6 3 13 6 14 6
1 1 8 -2 17 -5z m-114 -195 c0 -22 -6 -23 -40 -4 l-25 14 25 9 c30 12 40 7 40
-19z m340 21 c0 -6 -11 -22 -25 -36 -14 -14 -25 -31 -25 -39 0 -8 -4 -17 -10
-20 -5 -3 -10 -14 -10 -24 0 -9 -9 -27 -20 -39 -11 -12 -20 -27 -20 -35 0 -22
-12 -28 -24 -12 -9 13 -11 10 -13 -12 0 -15 -5 -29 -11 -31 -5 -1 -7 -15 -4
-30 l5 -27 -29 25 c-16 14 -31 26 -33 27 -2 1 17 28 42 60 26 32 72 91 103
131 54 68 74 85 74 62z m788 -46 c2 -1 2 -10 0 -20 -3 -15 -7 -14 -33 10 l-30
26 30 -6 c17 -4 32 -8 33 -10z m-1470 -160 c-10 -10 -36 8 -31 22 4 11 7 11
20 -2 9 -8 13 -17 11 -20z m15 -36 c-3 -14 -1 -18 4 -12 11 16 53 -1 53 -21 0
-9 25 -39 55 -67 41 -38 52 -54 44 -64 -10 -13 -52 -14 -56 -1 -6 16 -2 28 7
22 6 -3 10 1 10 9 0 23 -15 20 -33 -6 -14 -20 -18 -21 -26 -8 -6 8 -11 20 -11
25 0 6 5 3 10 -5 8 -12 10 -11 10 8 0 12 -3 22 -7 22 -5 0 -9 14 -10 32 -4 46
-19 55 -36 22 l-15 -29 -7 37 c-4 21 -11 35 -16 32 -5 -3 -9 -1 -9 5 0 5 8 12
18 14 9 3 18 5 19 6 0 0 -1 -9 -4 -21z m430 -65 c-3 -21 -11 -44 -17 -52 -6
-9 -7 -12 -1 -9 7 4 11 -10 13 -38 1 -27 -2 -43 -8 -39 -13 8 -13 -25 0 -45 5
-9 5 -19 -1 -27 -6 -7 -8 -16 -5 -21 3 -6 0 -15 -7 -21 -11 -8 -16 2 -27 52
-18 83 -16 126 6 168 16 29 44 67 51 69 1 0 -1 -17 -4 -37z m-436 -35 c-3 -8
-6 -5 -6 6 -1 11 2 17 5 13 3 -3 4 -12 1 -19z m313 -248 c0 -5 -5 -10 -11 -10
-5 0 -7 5 -4 10 3 6 8 10 11 10 2 0 4 -4 4 -10z m147 -105 c0 -8 -4 -12 -9 -9
-5 3 -6 10 -3 15 9 13 12 11 12 -6z m-484 -295 c3 -11 1 -20 -4 -20 -5 0 -9 9
-9 20 0 11 2 20 4 20 2 0 6 -9 9 -20z"/>
<path d="M1485 1250 c-3 -5 -1 -10 4 -10 6 0 11 5 11 10 0 6 -2 10 -4 10 -3 0
-8 -4 -11 -10z"/>
<path d="M1340 710 c0 -5 5 -10 10 -10 6 0 10 5 10 10 0 6 -4 10 -10 10 -5 0
-10 -4 -10 -10z"/>
<path d="M1825 2089 c-4 -6 -19 -7 -36 -4 -21 5 -29 3 -29 -7 0 -8 -12 -15
-26 -16 -15 -1 -32 -6 -38 -12 -7 -5 -30 -12 -52 -15 -42 -7 -94 -45 -94 -69
0 -8 8 -21 18 -28 9 -7 26 -38 36 -68 25 -72 43 -98 79 -116 22 -12 31 -13 37
-4 4 6 10 11 14 10 3 -1 32 4 64 11 56 12 56 12 24 20 -42 9 -49 16 -23 24 12
3 19 11 15 16 -3 5 -10 7 -15 3 -6 -3 -22 -3 -37 1 l-26 6 32 16 c18 9 32 22
32 29 0 19 8 18 56 -8 38 -20 43 -20 58 -6 14 15 13 19 -7 49 -12 19 -36 38
-52 43 -17 5 -40 13 -53 19 -23 11 -23 11 14 30 41 21 89 17 131 -10 31 -21
38 -12 19 25 -22 42 -62 65 -100 58 -22 -4 -27 -3 -16 4 13 8 13 10 -2 10 -9
0 -20 -5 -23 -11z m50 -171 c27 -28 28 -30 5 -16 -14 8 -42 20 -62 27 -47 16
-51 36 -5 27 17 -4 46 -21 62 -38z"/>
<path d="M2151 1936 c-12 -14 -5 -46 9 -46 10 0 19 49 10 55 -4 3 -13 -1 -19
-9z"/>
<path d="M1665 1598 c11 -35 75 -119 86 -112 21 13 -32 103 -73 125 -18 10
-19 8 -13 -13z"/>
<path d="M2027 1469 c-3 -12 -1 -30 4 -38 8 -13 10 -12 6 6 -3 12 0 24 7 26 8
3 8 8 0 16 -9 9 -13 7 -17 -10z"/>
<path d="M1850 1370 c0 -5 5 -10 10 -10 6 0 10 5 10 10 0 6 -4 10 -10 10 -5 0
-10 -4 -10 -10z"/>
<path d="M1400 481 c0 -12 5 -21 10 -21 6 0 10 6 10 14 0 8 -4 18 -10 21 -5 3
-10 -3 -10 -14z"/>
<path d="M1291 468 c0 -10 -6 -18 -12 -18 -5 0 -7 -5 -3 -11 10 -16 27 5 21
27 -4 17 -5 17 -6 2z"/>
<path d="M1421 408 c-1 -16 4 -28 9 -28 12 0 12 8 0 35 -8 18 -9 17 -9 -7z"/>
<path d="M1330 375 c7 -8 17 -12 22 -9 6 4 5 10 -3 15 -22 14 -33 10 -19 -6z"/>
<path d="M1400 353 c0 -6 -7 -18 -15 -27 -14 -13 -13 -16 4 -26 16 -8 21 -6
26 10 3 11 2 28 -4 37 -6 10 -11 13 -11 6z"/>
<path d="M1505 350 c3 -5 10 -10 16 -10 5 0 9 5 9 10 0 6 -7 10 -16 10 -8 0
-12 -4 -9 -10z"/>
<path d="M1455 340 c3 -5 8 -10 11 -10 2 0 4 5 4 10 0 6 -5 10 -11 10 -5 0 -7
-4 -4 -10z"/>
<path d="M1511 268 c-1 -28 21 -39 34 -18 3 6 -1 10 -9 10 -8 0 -17 8 -19 18
-3 10 -5 6 -6 -10z"/>
<path d="M1433 248 c3 -10 2 -20 -3 -23 -6 -4 -10 1 -10 10 0 9 -4 14 -9 10
-17 -10 22 -64 43 -61 11 1 22 8 24 14 2 7 -3 10 -12 6 -9 -3 -16 -2 -17 2 -2
25 -8 47 -15 52 -4 4 -4 -1 -1 -10z"/>
<path d="M1600 225 c0 -8 -7 -15 -15 -15 -22 0 -18 -17 5 -23 17 -4 20 0 20
24 0 16 -2 29 -5 29 -3 0 -5 -7 -5 -15z"/>
<path d="M1552 185 c0 -16 2 -22 5 -12 2 9 2 23 0 30 -3 6 -5 -1 -5 -18z"/>
<path d="M1397 132 c-15 -3 -16 -6 -6 -19 10 -12 10 -16 -1 -23 -12 -7 -11
-15 5 -47 l19 -38 4 29 c2 16 -2 32 -9 37 -11 6 -10 9 3 14 10 4 15 15 13 27
-5 25 -6 25 -28 20z"/>
<path d="M1482 100 c-10 -17 -10 -20 3 -20 8 0 15 9 15 20 0 11 -1 20 -3 20
-1 0 -8 -9 -15 -20z"/>
<path d="M1538 59 c-12 -33 18 -51 51 -30 12 8 12 12 -2 25 -20 21 -27 20 -28
-1 0 -16 -1 -16 -8 1 -6 15 -9 16 -13 5z"/>
</g>
</svg>
